{"asset":{"version":"2.0","generator":"THREE.GLTFExporter"},"scenes":[{"nodes":[0],"name":"AuxScene"}],"scene":0,"nodes":[{"mesh":0}],"bufferViews":[{"buffer":0,"byteOffset":0,"byteLength":104400,"target":34962,"byteStride":12},{"buffer":0,"byteOffset":104400,"byteLength":104400,"target":34962,"byteStride":12}],"buffers":[{"byteLength":208800,"uri":"data:application/octet-stream;base64,"}],"accessors":[{"bufferView":0,"componentType":5126,"count":8700,"max":[99.38916015625,10.149038314819336,99.29080200195312],"min":[-99.5108642578125,1.1490379571914673,-99.60922241210938],"type":"VEC3"},{"bufferView":1,"componentType":5126,"count":8700,"max":[0,1,0],"min":[0,1,0],"type":"VEC3"}],"materials":[{"pbrMetallicRoughness":{"baseColorFactor":[0.5019607843137255,0.5019607843137255,0.5019607843137255,1],"metallicFactor":0,"roughnessFactor":1}}],"meshes":[{"primitives":[{"mode":4,"attributes":{"POSITION":0,"NORMAL":1},"material":0}]}]}